<?xml version="1.0" encoding="UTF-8"?><svg id="baggrund" xmlns="http://www.w3.org/2000/svg" xmlns:xlink="http://www.w3.org/1999/xlink" viewBox="0 0 1920 1080"><defs><style>.cls-1,.cls-2,.cls-3,.cls-4,.cls-5,.cls-6,.cls-7,.cls-8{stroke-linecap:round;stroke-linejoin:round;}.cls-1,.cls-9,.cls-8{fill:#7f756c;}.cls-1,.cls-8{stroke:#7f756c;}.cls-2{fill:#d2cac5;}.cls-2,.cls-10,.cls-11,.cls-12,.cls-13,.cls-14,.cls-3,.cls-4,.cls-5,.cls-15,.cls-16,.cls-17,.cls-18,.cls-19,.cls-6,.cls-20,.cls-21,.cls-7,.cls-22,.cls-23,.cls-24,.cls-25,.cls-26,.cls-27,.cls-28,.cls-29{stroke:#000;}.cls-2,.cls-10,.cls-12,.cls-13,.cls-14,.cls-3,.cls-4,.cls-5,.cls-21,.cls-30,.cls-22{stroke-width:5px;}.cls-10{fill:#f05a24;}.cls-10,.cls-11,.cls-12,.cls-13,.cls-14,.cls-31,.cls-15,.cls-16,.cls-17,.cls-18,.cls-19,.cls-20,.cls-21,.cls-30,.cls-22,.cls-23,.cls-24,.cls-25,.cls-32,.cls-26,.cls-27,.cls-28,.cls-33,.cls-29{stroke-miterlimit:10;}.cls-11,.cls-31,.cls-8{stroke-width:3px;}.cls-11,.cls-21,.cls-30,.cls-26{fill:none;}.cls-12,.cls-34{fill:#b52729;}.cls-13{fill:#cbcbcb;}.cls-35{fill:url(#linear-gradient);}.cls-14,.cls-25{fill:#fad4bd;}.cls-3{fill:#f0f4f4;}.cls-4,.cls-36,.cls-7,.cls-23,.cls-27{fill:#fff;}.cls-5{fill:#e56d28;}.cls-31,.cls-32,.cls-33{stroke:#fff;}.cls-37{fill:#f9d151;}.cls-38{fill:#f3cec7;}.cls-39,.cls-20{fill:#faaf3b;}.cls-40{fill:#f9a46d;}.cls-41{fill:#fb954f;}.cls-42{fill:#985d37;}.cls-43{fill:#989898;}.cls-44{fill:#a19c9b;}.cls-45{fill:#b9272d;}.cls-46{fill:#9e2c27;}.cls-47,.cls-6{fill:#b54c24;}.cls-48{fill:#b91c24;}.cls-49{fill:#8f242a;}.cls-50{fill:#8f241f;}.cls-51{fill:#b94920;}.cls-52{fill:#ce907a;}.cls-53{fill:#af4326;}.cls-54{fill:#b1b1b1;}.cls-55{fill:#b04a25;}.cls-56{fill:#b14823;}.cls-57{fill:#b24c20;}.cls-58,.cls-17,.cls-29{fill:#c0272d;}.cls-59{fill:#d69080;}.cls-60{fill:#a94b23;}.cls-61{fill:#53817b;}.cls-62{fill:#86b0da;}.cls-15{fill:#ffe2b4;}.cls-15,.cls-16,.cls-18,.cls-19,.cls-6,.cls-20,.cls-7,.cls-32,.cls-26{stroke-width:4px;}.cls-16{fill:#ff7bab;}.cls-17{stroke-width:2px;}.cls-18{fill:#754c24;}.cls-19{fill:#5777a5;}.cls-30{stroke:#31516c;}.cls-23{stroke-width:8px;}.cls-24{fill:#42210b;}.cls-63{opacity:.66;}.cls-27,.cls-29{stroke-width:6px;}.cls-28{opacity:.68;}.cls-33{stroke-width:7px;}.cls-64{fill:#fbb03b;opacity:.65;}</style><linearGradient id="linear-gradient" x1="971" y1="1.5" x2="971" y2="1090.5" gradientUnits="userSpaceOnUse"><stop offset="0" stop-color="#fff"/><stop offset=".26" stop-color="#ff931e"/><stop offset=".31" stop-color="#f37f20"/><stop offset=".41" stop-color="#d64d27"/><stop offset=".47" stop-color="#c1272d"/><stop offset=".63" stop-color="#c1272d"/><stop offset=".8" stop-color="#582224"/><stop offset=".94" stop-color="#000"/></linearGradient></defs><g><rect class="cls-35" x=".5" y="1.5" width="1941" height="1089"/><path d="M1941,2V1090H1V2H1941m1-1H0V1091H1942V1h0Z"/></g><path class="cls-33" d="M558.12,271.98l-65.12-35.98,32.56-38.62-32.56-30.77-54.12,52.68s-45.88,16.7-53.88-12.3,0-76.92,0-76.92c0,0-53,5.92-63,24.92s0,69.31,0,69.31l-29,9.69v-32.97s-25,11.97-23,36.97l-34.96-36.97-21.04,20.97s24.04-3.92,29.02,21.54l-37.02,9.46-11.35,31.19-103.65-114.19-50-14.92v61.54l123,109.38-48.19,45.98-30.31-11.48-25,29s-16,29,11,35,44-31,44-31l64-31s24,0,15,31-69.08,37.97-82.54,54.49c0,0,41.62,26.48,73.08,24s57.98,56.17,57.98,56.17l18.48,61.35s22.12-36,38.06-50.5l15.94-14.5s74,13,96-14,122,4,122,4l57.31-42.52h261.54l21.15-14,26.92,14s54.08,42.48,123.08,0l21.15-14,18.85,23.52,60,2,21.15-25.52,11.85,23.52,52,2,28.46-25.52,21.54,23.52,271-1,12.53-8.52,14.47,7.52h57l9.69-21.52,33.31,21.52,80-1v-217.04l-91,.04-1,29-52-32-41,2-6.67,11.48-23.33-14.48-248,3-12.7,11.48-18.3-13.48-35-3-15.26,16.48-24.74-17.48-51-1-11.01,18.48-23.99-21.48h-54l-15.5,21.48-46.5-31.48s-47-18-85,8l-50.65,23.48-40.35-9.48-49,2-144-4-38.38,11.48Z"/><g><path class="cls-36" d="M390.22,284.79c-1.2,8.2-1.6,15.6-1.6,29.6v107.2c0,13,.4,19.8,1.6,29.6h-43c1.2-8.4,1.6-15.8,1.6-29.6v-38.8h-67.4v38.8c0,13,.4,20.6,1.6,29.6l-45.02,33.81c1.2-8.2,3.62-49.41,3.62-63.41v-107.2c0-13.8-15.42-32.79-16.62-41.39l58.02,11.79c-1.2,9.4-1.6,17.2-1.6,29.6v33.2h67.4v-33.2c0-13.8-.4-21.8-1.6-29.6h43Z"/><path class="cls-36" d="M528.62,451.19c-1.6-9.6-2.8-14.8-4.8-21.6l-5.4-17h-57l-5.4,17c-2.6,8-4,14.2-5,21.6h-46.8c3-6,4.8-10.8,9.6-24.4l43.2-120.4c3.6-9.8,5.4-15.8,6.4-21.6h52.2c1.4,5.8,2.8,11,6.8,21.6l43.4,120.4c3.8,10.6,7,18.8,9.6,24.4h-46.8Zm-39-132.2l-18.6,60h37.6l-19-60Z"/><path class="cls-36" d="M618.82,451.19c-13.8,0-22,.2-29.6,.6,1.2-7,1.6-15.8,1.6-29.2v-105.6c0-14-.4-22.6-1.6-32.2h43.6c-1.4,10.4-1.6,16-1.6,31.6v99.2h48.4c17,0,23.8-.2,33.2-1.4v38.4c-7.4-1-17.2-1.4-33.2-1.4h-60.8Z"/><path class="cls-36" d="M756.01,451.19c-13.8,0-22,.2-29.6,.6,1.2-7,1.6-15.8,1.6-29.2v-105.6c0-14-.4-22.6-1.6-32.2h43.6c-1.4,10.4-1.6,16-1.6,31.6v99.2h48.4c17,0,23.8-.2,33.2-1.4v38.4c-7.4-1-17.2-1.4-33.2-1.4h-60.8Z"/><path class="cls-36" d="M1020.01,367.19c0,52.8-32.2,87.8-80.8,87.8s-80.6-34.2-80.6-87.2,31.6-86.6,80.8-86.6,80.6,33.6,80.6,86Zm-41.6,.4c0-32.4-14.8-52-39-52s-39.4,19.8-39.4,52,15,52.8,39.4,52.8,39-20,39-52.8Z"/><path class="cls-36" d="M1163.61,451.19c-.8-6.4-2.2-13.4-4.2-21.4l-15.2-58.8c-2-7.8-3.6-17-5.6-30.2-1.2,8.2-3.6,20.8-6,30.2l-14.8,59c-2.6,10-3.8,15.8-4.4,21.2h-39.8c-1-5.8-2-10-5-21.6l-32-120c-2.8-10.2-5.6-19.4-7.6-24.8h45.6c.2,7.2,1.2,13.6,2.8,22l12.8,60.8c.6,3,2,12.4,4.4,28.2,3-16.8,4.4-24,5.6-28.2l16-62c2.4-9,3.6-15.2,4.4-20.8h35.6c.8,5.2,2,10.8,4.6,20.2l16.2,61.6c1.6,6.4,3,13,5.6,29.2q.4-3.8,1.6-12.2c.6-4.4,2-14,2.8-17.2l12.6-59.6c2-9.2,2.8-15,3-22h45.4c-2,5.4-4.8,14.8-7.4,24.8l-32,119.8c-2.6,9.4-4.4,17-5,21.8h-40Z"/><path class="cls-36" d="M1387.41,452.59c-8.6-1-15.8-1.4-33-1.4h-63c-15.2,0-20.8,.2-29.4,.6,1.2-8,1.6-15.4,1.6-29.2v-109.2c0-12.4-.4-19.4-1.6-29.2,8.2,.4,13.8,.6,29.4,.6h63.8c13.6,0,20.4-.4,29.8-1.4v37.4c-9.2-1-16.4-1.4-29.8-1.4h-52v29.4h43.2c13.2,0,18-.2,30-1.4v37c-9.4-1-16.2-1.4-30-1.4h-43.2v33.6h51.6c15.2,0,24-.4,32.6-1.4v37.4Z"/><path class="cls-36" d="M1533.2,452.59c-8.6-1-15.8-1.4-33-1.4h-63c-15.2,0-20.8,.2-29.4,.6,1.2-8,1.6-15.4,1.6-29.2v-109.2c0-12.4-.4-19.4-1.6-29.2,8.2,.4,13.8,.6,29.4,.6h63.8c13.6,0,20.4-.4,29.8-1.4v37.4c-9.2-1-16.4-1.4-29.8-1.4h-52v29.4h43.2c13.2,0,18-.2,30-1.4v37c-9.4-1-16.2-1.4-30-1.4h-43.2v33.6h51.6c15.2,0,24-.4,32.6-1.4v37.4Z"/><path class="cls-36" d="M1649.2,366.59c5.8,8.6,9.6,15,14.4,23.8-.8-9.2-1.2-18.4-1.2-29.6v-45.6c0-13.2-.4-21.2-1.6-30.4h42.6c-1.2,9-1.6,17.4-1.6,30.4v106.2c0,12.2,.6,21.4,1.6,29.8h-43.8c-3.6-7.6-8.2-15-15-25.4l-37-55.8c-5.4-8-8.8-14-14.4-24.6,1,9,1.4,20,1.4,29.8v44.8c0,13.8,.4,22.6,1.6,31.2h-42.6c1.2-7.8,1.6-16.6,1.6-31.4v-105.2c0-11.6-.4-20.6-1.6-29.8h43.4c2,5.4,6.4,13.4,14.2,25l38,56.8Z"/></g><polygon class="cls-32" points="67 455.35 60.25 494 81.68 494 67 455.35"/><path class="cls-32" d="M479.76,135.85l7.24,9.15-14.2,11.11c-4.87,3.81-11.9,2.96-15.72-1.89l-6.85-8.68,15.44-11.53c4.42-3.3,10.66-2.49,14.09,1.84Z"/><polygon class="cls-33" points="35.5 246.5 21.66 281.19 46 289.72 60.25 281.19 60.25 254.93 35.5 246.5"/><polygon class="cls-31" points="503.5 526.5 487 550.61 503.5 564.52 503.5 526.5"/><g><path class="cls-36" d="M1054.99,528.59c0,23.22-18.16,38.61-45.57,38.61s-45.46-15.04-45.46-38.35,17.82-38.08,45.57-38.08,45.46,14.78,45.46,37.82Zm-23.46,.18c0-14.25-8.35-22.87-22-22.87s-22.22,8.71-22.22,22.87,8.46,23.22,22.22,23.22,22-8.79,22-23.22Z"/><path class="cls-36" d="M1123.23,565.53c-.68-2.81-2.03-6.42-5.53-13.72-3.61-7.65-4.96-9.67-7.78-11.61-2.37-1.67-5.19-2.38-8.8-2.38h-11.51v14.42c0,5.98,.23,9.24,.9,13.28h-24.25c.68-4.05,.9-6.68,.9-13.19v-47.32c0-5.45-.23-8.71-.9-12.93,4.96,.18,9.14,.26,16.81,.26h29.33c18.27,0,28.88,7.39,28.88,20.05,0,6.24-2.26,11.17-6.66,14.42-2.82,2.02-5.19,2.99-10.72,4.4,5.75,1.41,8.35,3.43,11.96,9.67,1.69,2.81,3.27,5.81,8.35,15.3,1.24,2.46,2.59,4.66,5.42,9.32h-26.4Zm-16.02-42.74c6.66,0,10.72-3.17,10.72-8.18s-3.61-7.48-10.6-7.48h-17.71v15.66h17.6Z"/></g><g><path class="cls-23" d="M909.58,603.18c0-8.36-14.51-30.53-15.58-36.18,6.16,.25,26.23,9,39,9l30.14,9.47c18.93,0,34.16,4.18,44.47,12.17,11.23,8.85,16.93,21.77,16.93,38.12s-10.07,26.93-17.85,39.72c-13.69,22.51-22.37,32.51-40.69,32.51h-34c-11.85,0-46.54,.75-53,1,.92-5.41,30.58-30.32,30.58-38.8v-67.02Zm51.09,63.08c10,0,17.08-2.09,22.62-6.52,6.31-5.17,9.69-13.4,9.69-23.61s-2.92-18.08-8.92-22.87c-5.39-4.3-12.77-6.27-23.85-6.27h-20.16v59.27h20.62Z"/><path class="cls-23" d="M1078,581c-.92,5.04-9.45,16.7-9.45,25.67v65.91c0,8.49,28.53,35.25,29.45,40.42l-86-2c.92-4.8,25.16-30.18,25.16-38.42v-65.91c0-9.22-5.24-20.26-6.16-25.67h47Z"/><path class="cls-23" d="M1225,709c-6.62-.62-37.77-1-51-1l-27-7c-11.7,0-42.52-12.09-49.13-11.85,.92-4.92,1.23-9.47,1.23-17.95v-67.14c0-7.62-.31-11.93-1.23-17.95,6.31,.25,10.62,.37,22.62,.37l41.51-5.47c10.46,0,36.77-6.38,44-7l-13.5,34.61c-7.08-.62-12.62-.86-22.93-.86h-40.01v18.08h33.24c10.16,0,13.85-.12,23.08-.86v22.75c-7.23-.62-12.46-.86-23.08-.86h-33.24v20.66h39.7c11.7,0,18.47-.25,25.08-.86l30.65,42.35Z"/></g><g><polygon class="cls-25" points="1513.79 222.42 1478.03 222.42 1478.03 204.32 1516.44 200.3 1513.79 222.42"/><g><path class="cls-10" d="M1427.96,220.21c-1.43-1.15-3.07-3.34-4.19-4.97-.7-1.01-2.18-1.11-3.01-.2l-2.94,3.18c-1.06,1.15-2.99,.63-3.31-.89l-4.11-19.66c-.15-.7-.69-1.26-1.39-1.44l-12.19-3.16c-.93-.24-1.91,.23-2.27,1.11l-3.62,8.71c-.63,1.51-2.79,1.58-3.51,.11l-18.5-37.62c-2.21-4.49-8.82-4.19-10.61,.47h0c-.68,1.78-3.32,1.57-3.69-.3l-4.98-24.96c-.32-1.61-2.45-2.08-3.44-.75l-2.87,3.84c-1.09,1.45-3.43,.73-3.47-1.07-.5-22.24,2.3-106.47,71.66-125.64,.4-.11,1.4-.53,1.01-.68-1.87-.71,10.72-22.29,42.98-31.33,.13-.04,.26,0,.39-.03,2.68-.52,33.3-6.19,47.33,4.82,.49,.39,7.25-1.21,13.49-1.37,14.13-.35,40.62,3.48,82.28,26.06l.09,.05c1.02,.46,18.07,8.04,29.68-1.33,1.07-.86,5.69-4.76,6.08-3.46,1.46,4.91-1.36,19.31-23.21,20.97-1.68,.13-2.4,2.16-1.15,3.27,10.85,9.58,46.76,45.82,46.53,63.5-.02,1.76-5.98-4.07-7.13-5.43-2.71-3.23-8.18-6.69-17.59-3.77-11.8,3.65,11.73,16.27,20.76,23.18,1.4,1.08-4.75,3.11-12.08,1.08-2.75-.76-6.06,1.18-9.3,4.35-7.92,7.76,10.92,14.86,16.46,14.86,4.17,0-4.21,3.96-8.62,5.92-1.17,.52-1.51,2-.66,2.95,3.28,3.68,9.56,12.12,5.9,19.59-.28,.58-.86,.99-1.51,1.06-1.74,.18-5.61,1.35-8.57,7.75l-6.63,13c-.75,1.48-2.94,1.36-3.52-.19-1.63-4.33-4.52-10.64-8.05-12.48-1.38-.72-3.03,.38-2.82,1.91,.96,6.91,2.66,28.23-10.1,41.63-1.12,1.18-3.13,.58-3.33-1.02-.65-5.05-2.23-13.82-5.58-17.49-1.12-1.22-3.19-.53-3.34,1.1-.59,6.52-4.38,31.1-10.76,25.56-9.05-7.87-12.22-23.4-44.73-22.21-1,.04-1.97-.27-2.3-1.2l-4.38-12.28c-.32-.9-1.28-1.42-2.23-1.22l-73.84,15.84c-.34,.07-.65,.23-.9,.46l-21.65,19.76c-.71,.64-1.79,.68-2.53,.08Z"/><path class="cls-14" d="M1420.58,49.59c-3.67,2.7-43.39,33.5-27.38,92.41,.1,.36,.09,.73-.04,1.08-1.74,4.93-14.1,43.27,17,53.43,0,0,29,9.88,48.94,11.23,2.77,.19,5.36,.21,7.68,.02,19.01-1.55,12.67-1.55,19.01-1.55s57.89-13.02,84.97-36.78c.35-.31,.8-.48,1.27-.48,4.15,.03,25.06-.29,34.12-9.26,.51-.5,.7-1.23,.48-1.9-2.29-7.13-18.29-49.1-87.59-85.9,0,0-63.76-33.18-97.89-22.61-.21,.07-.4,.16-.58,.29Z"/></g><g><g><path class="cls-4" d="M1402.01,119.94v17.79c0,7.15,5.73,13.2,13.39,14.14l14.41,.34c8.28,.2,15.58-4.98,17.53-12.41l3.37-12.87-48.7-6.99Z"/><path class="cls-62" d="M1425.37,124.99l22.96,3.11s-.77,8.29-4.57,15.21c-.12,.22-.32,.38-.45,.6-1.31,2.05-7.71,7.35-12.14,6.32-5.01-1.16-10.84-2.72-12.28-7.76s-2.03-16.62,6.48-17.47Z"/><ellipse cx="1439.23" cy="134.69" rx="4.36" ry="4.27"/></g><g><path class="cls-4" d="M1539.8,114.51l5.54,18.63c0,7.15-14.3,16.68-21.97,17.63l-14.41,.34c-8.28,.2-15.58-4.98-17.53-12.41l-3.37-12.87,51.74-11.32Z"/><path class="cls-62" d="M1513.27,121.88l-22.83,5.11s.77,8.29,4.57,15.21c.12,.22,.32,.38,.45,.6,1.31,2.05,7.71,7.35,12.14,6.32,5.01-1.16,12-2.39,14.38-7.05s-.2-19.34-8.71-20.19Z"/><ellipse cx="1499.55" cy="133.59" rx="4.36" ry="4.27"/></g></g><path class="cls-42" d="M1419.31,106.83l.27,.16c1.13,.66,1.32,2.19,.39,3.11l-2.85,2.79c-.87,.85-2.31,.75-3.05-.21h0c-.57-.74-.54-1.78,.08-2.48l2.58-2.95c.64-.74,1.73-.91,2.58-.41Z"/><path class="cls-42" d="M1428.82,109.93l.27,.16c1.13,.66,1.32,2.19,.39,3.11l-2.85,2.79c-.87,.85-2.31,.75-3.05-.21h0c-.57-.74-.54-1.78,.08-2.48l2.58-2.95c.64-.74,1.73-.91,2.58-.41Z"/><path class="cls-42" d="M1438.32,113.04l.27,.16c1.13,.66,1.32,2.19,.39,3.11l-2.85,2.79c-.87,.85-2.31,.75-3.05-.21h0c-.57-.74-.54-1.78,.08-2.48l2.58-2.95c.64-.74,1.73-.91,2.58-.41Z"/><path class="cls-42" d="M1449.41,116.14l.27,.16c1.13,.66,1.32,2.19,.39,3.11l-2.85,2.79c-.87,.85-2.31,.75-3.05-.21h0c-.57-.74-.54-1.78,.08-2.48l2.58-2.95c.64-.74,1.73-.91,2.58-.41Z"/><path class="cls-42" d="M1517.62,103.03l-.27,.16c-1.13,.66-1.32,2.19-.39,3.11l2.85,2.79c.87,.85,2.31,.75,3.05-.21h0c.57-.74,.54-1.78-.08-2.48l-2.58-2.95c-.64-.74-1.73-.91-2.58-.41Z"/><path class="cls-42" d="M1508.11,106.91l-.27,.16c-1.13,.66-1.32,2.19-.39,3.11l2.85,2.79c.87,.85,2.31,.75,3.05-.21h0c.57-.74,.54-1.78-.08-2.48l-2.58-2.95c-.64-.74-1.73-.91-2.58-.41Z"/><path class="cls-42" d="M1498.61,111.57l-.27,.16c-1.13,.66-1.32,2.19-.39,3.11l2.85,2.79c.87,.85,2.31,.75,3.05-.21h0c.57-.74,.54-1.78-.08-2.48l-2.58-2.95c-.64-.74-1.73-.91-2.58-.41Z"/><path class="cls-42" d="M1488.32,114.67l-.27,.16c-1.13,.66-1.32,2.19-.39,3.11l2.85,2.79c.87,.85,2.31,.75,3.05-.21h0c.57-.74,.54-1.78-.08-2.48l-2.58-2.95c-.64-.74-1.73-.91-2.58-.41Z"/><g><path class="cls-3" d="M1440.81,170.4s36.43,3.11,55.43-5.43c0,0,4.82,19.11-21.34,27.41,0,0-26.17,5.2-34.09-21.98Z"/><polygon class="cls-43" points="1457.05 173.12 1461.8 173.12 1458.63 188.65 1453.88 186.32 1457.05 173.12"/><polygon class="cls-43" points="1467.07 172.73 1474.47 172.35 1473.68 190.98 1468.92 190.98 1467.07 172.73"/><polygon class="cls-43" points="1480.01 171.57 1486.35 170.02 1491.1 180.11 1487.93 183.21 1480.01 171.57"/></g><g><g><g><path class="cls-21" d="M1466.17,213.72s-25.98,8.14-31.52,16.68-7.13,27.17-7.13,27.17c0,0,10.29,37.27,14.25,37.27s59.39,19.41,68.89,19.41c0,0,82.09-24.44,89.75-50.26,0,0-26.4-55.32-38.27-56.1,0,0-38.54-7.76-48.17-2.72,0,0-6.47,12.81-16.76,14.36,0,0-14.52,.81-19.53-5.81,0,0-8.5-5.81-11.51,0Z"/><g><path class="cls-61" d="M1481.19,217.61c-1.13-.69-2.12-1.53-2.89-2.55,0,0-8.5-5.81-11.51,0,0,0-9.93,3.11-18.82,7.51l33.22-4.96Z"/><path class="cls-61" d="M1551.03,207.18c-12.17-1.88-30.25-3.91-36.44-.67,0,0-1.69,3.34-4.71,6.82l41.15-6.14Z"/></g><g><path class="cls-39" d="M1474.17,220.19c-.43-.54-.15-.63-.5-1.26-.07-.13,.14,.07-.79,0-2.6-.19-4.53-.24-11.09,0-.35,.01-1.24,0-1.58,0-5.76,.07-11.5,1.69-11.13,5.85,.15,1.6-.52,2.96,1.08,2.61l24.3-1.48c1.03-.22,.35-4.91-.3-5.73Z"/><path class="cls-39" d="M1545.74,209.61c-11.06-2.06-22.88-.47-28.25,3.06-.24,.16-.42,.4-.52,.67-.37,.98-1.41,3.6-3.02,6.66-.57,1.07,.4,2.31,1.6,2.05l31.34-6.72c1.55-.33,.41-5.43-1.15-5.72Z"/><path class="cls-39" d="M1561.58,209.61c-3.17,6.21-2.86,25.12-8.23,28.65-.24,.16-.42,.4-.52,.67-.37,.98-1.41,3.6-3.02,6.66-.57,1.07,.4,2.31,1.6,2.05l23.63-25.61c-8.71-13.2-13.46-12.42-13.46-12.42Z"/><path class="cls-39" d="M1445.51,243.73c-.3-.34-.65-.63-1-.91-5.33-4.2-2.55-7.95-7.26-12.24-.22-.2-2.28,2.06-2.38,2.33-.79,2.33-2.38,3.11-2.38,3.11-1.1-.55-1.1,5.04-.79,6.21l16.63,14.75c0-6.21-.74-10.88-2.83-13.24Z"/><path class="cls-61" d="M1430.7,243.42c-.58,2.68-1.1,5.04-.79,6.21l16.63,14.75c0-6.21,4.73-12.07-.58-12.07-.79,0-2.9-1.81-3.25-2.09-5.33-4.2-6.25-4.9-11.79-8.78"/><path class="cls-61" d="M1593.85,262.14c-6.81,4.37-12.33,7.35-18.97,10.92l-1.11,.6c-3.32,1.79-5.07,3.5-5.07,3.5-.64,.64,1.96,5.37,3.3,8.72,.7,1.74,2.94,2.28,4.39,1.07l20.38-17.73c1.96-1.63,2.57-4.34,1.51-6.63-3.76-8.1-.87-1.48-4.44-.45Z"/><path class="cls-61" d="M1572.96,222.61c-4.63,5.96-7.93,9.93-12.59,15.15-.18,.21-.44,.53-.61,.74-2.99,3.54-3.96,3.98-3.96,3.98-.54,.54,1.03,3.33,2.13,6.17,.57,1.47,2.54-.56,3.75-1.59l15.17-14.58c1.63-1.39,3.83-1.77,2.96-3.71-3.08-6.86-3.88-7.04-6.84-6.15Z"/><path class="cls-38" d="M1580.78,237.77c-5.67,5.74-10.4,9.83-16.07,14.75l-.95,.82c-2.84,2.46-2.84,3.28-2.84,3.28-.72,1.12,1.4,6.83,2.84,6.56l25.53-20.18c-8.57-11.31-4.84-7.22-8.51-5.23Z"/><path class="cls-45" d="M1586.92,243.77c-6.65,5.8-13.55,11.06-20.21,16.05l-1.11,.83c-3.33,2.49-3.32,3.31-3.32,3.31-.83,1.12,1.76,6.76,3.47,6.47l28.3-15.78c-6.34-12.42-2.05-13.13-7.13-10.87Z"/><path class="cls-39" d="M1590.88,251.54c-6.65,5.8-13.85,10.79-20.51,15.77l-1.11,.83c-3.33,2.49-4.51,2.8-4.51,2.8-.83,1.12,2.96,7.26,4.66,6.97l28.3-15.78c-6.04-11.37-4.46-12.15-6.83-10.59Z"/><path class="cls-48" d="M1478.51,227.62c-.7,.04-.15-.63-.5-1.26-.07-.13-1.03-.37-1.97-.44-2.6-.19-3.36,.2-9.91,.44-.35,.01-5.13,.33-5.13,.33-9.5,0-7.95,1.35-7.57,5.52,.15,1.6-.52,2.96,1.08,2.61l48.47-1.92c2.38-1.55,6.34-6.99-24.46-5.29Z"/><path class="cls-48" d="M1542.18,218.33c-10.7-1.73-20.99,.6-28.25,3.06-.28,.09-.42,.4-.52,.67-.37,.98-10.4,3.9-12.02,6.96-.57,1.07,.38,4.14,1.58,3.88l40.36-8.85c1.55-.33,.42-5.47-1.15-5.72Z"/></g></g><path class="cls-17" d="M1517.63,203.01c11.91,1.5,.13,28.3-25.34,27.17-22.83-1.01-23.36-13.59-20.19-18.24,2.92-4.3,.89,5.61,20.19,8.93,21.38,3.67,19.61-18.58,25.34-17.86Z"/></g><path class="cls-19" d="M1437.64,225.53s7.13-6.99,11.88-4.66c0,0,7.42,9.21,13.21,24.79l70.73-6.93s5.43-34.64,9.44-33.62c0,0,2.73-4.12,18.02,0,0,0-3.71,30.52-6.88,34.4l17.82,50.08s-36.1,29.91-64.14,24.84c-30.09-5.43-53.85-16.3-61.77-20.19l1.86-48.58s-10.97-13.14-10.18-20.13Z"/></g><path class="cls-11" d="M1561.33,209.68l-5.69,31.38,16.23,48.52s24.64-13.92,26.18-24.82-32.06-59.67-36.54-55.51c-.12,.11-.17,.27-.19,.42Z"/><path class="cls-26" d="M1436.46,228.24s-9.42,22.31-7.92,27.17"/><path class="cls-30" d="M1472.96,263.65l58.52-4.08s10.24,19.5,2.73,24.73l-27.11,10.53c-2.53,.98-5.35,.94-7.85-.12-7.92-3.36-25.28-10.86-27.57-12.91-2.99-2.66,1.28-18.16,1.28-18.16Z"/><ellipse class="cls-29" cx="1458.63" cy="256.97" rx="6.34" ry="6.21"/><ellipse class="cls-29" cx="1543.36" cy="244.55" rx="6.34" ry="6.21"/><path class="cls-40" d="M1369.53,54.66l-4.02,7.78c-.7,1.36-.23,3.14,1,3.77h0c2.61,1.35,5.66,.14,7.07-2.81l3.1-6.5c1.12-2.36-.3-5.28-2.58-5.28h0c-1.86,0-3.59,1.15-4.56,3.04Z"/><path class="cls-40" d="M1381.13,64.59l-4.02,7.78c-.7,1.36-.23,3.14,1,3.77h0c2.61,1.35,5.66,.14,7.07-2.81l3.1-6.5c1.12-2.36-.3-5.28-2.58-5.28h0c-1.86,0-3.59,1.15-4.56,3.04Z"/><path class="cls-55" d="M1423.79,46.57l-5.54,2.33s-10.7-17.19-6.34-30.28l3.17-3.88s1.76,32.58,8.71,31.83Z"/><path class="cls-47" d="M1516.04-9.71l-11.09,1.55s52.07,20.77,65.15,32.22c2.11,1.85,5.37,1.61,7.25-.46h0c1.05-1.16,.73-2.97-.65-3.71-11.73-6.31-57.89-30.96-60.66-29.6Z"/><path class="cls-47" d="M1632.17,86.3l.87-.28c.92-.3,1.27-1.25,1.04-2.17-1.92-7.66-22.43-35.24-34.59-43.16-1.61-1.05-4.15-2.43-6.3-2.5-.96-.03-1.74,.72-1.74,1.66h0c-1.26,.56,3.78,4.67,4.91,5.46,12.29,8.57,32.23,31.66,34.1,40.08,.15,.68,1.03,1.12,1.7,.91Z"/><path class="cls-40" d="M1559.34,54.29l7,5.38c1.22,.94,3.09,.83,3.97-.22h0c1.86-2.25,1.24-5.42-1.44-7.34l-5.9-4.25c-2.14-1.54-5.34-.74-5.78,1.45h0c-.36,1.79,.45,3.67,2.15,4.98Z"/><path class="cls-40" d="M1563.39,43.86l7.48,4.73c1.3,.82,3.16,.55,3.93-.58h0c1.64-2.41,.72-5.5-2.12-7.18l-6.27-3.69c-2.27-1.34-5.39-.25-5.62,1.97h0c-.19,1.81,.8,3.62,2.61,4.76Z"/><path class="cls-47" d="M1608.3,31.05h0s.35-.68,.24-.97c-.93-2.41-7.35-9.37-10.6-10.56-.43-.16-1.09-.31-1.58-.06-.22,.11-.35,.48-.28,.8h0c-.25,.36,.02,3.24,1.93,4.58,3.21,2.26,7.01,7.76,9.5,7.76,.79,0,.82-1.68,.79-1.55Z"/><path class="cls-52" d="M1598.81,147.86h0s-.29-.8-.62-.93c-2.75-1.02-13.64-.84-17.21,1-.47,.24-1.13,.68-1.31,1.28-.08,.27,.12,.64,.44,.83h0c.1,.47,2.72,2.39,5.35,1.8,4.43-1,12.03-.08,14.01-2.17,.63-.66-.75-1.94-.66-1.82Z"/><path class="cls-47" d="M1635.93,163.94h0s.77-.38,.86-.72c.67-2.81-.95-13.36-3.28-16.6-.31-.43-.84-1.01-1.47-1.1-.28-.04-.63,.2-.78,.54h0c-.47,.16-2.06,2.96-1.11,5.44,1.6,4.18,1.66,11.68,4.04,13.33,.75,.52,1.86-.98,1.75-.89Z"/><path class="cls-47" d="M1349.68,136.54h0s.87,.03,1.1-.23c1.96-2.15,5.7-12.17,5.24-16.11-.06-.52-.24-1.28-.75-1.65-.22-.17-.66-.12-.95,.1h0c-.49-.08-3.25,1.62-3.64,4.25-.64,4.42-4.25,11.03-2.98,13.6,.4,.81,2.11,.01,1.97,.05Z"/><path class="cls-6" d="M1613.84,169.24s-.8,38.15-11.88,43.48c0,0-4.38-18.91-8.92-19.94,0,0-7.82,33.35-12.52,28.2,0,0-22.2-28.4-44.73-22.21l-4.01-5.98s35.49-19.24,38.97-23.33c0,0,36.41-5.29,35.39-9.74"/><g><path class="cls-14" d="M1390.59,260.56c.53-.38,.92-.92,1.07-1.55,.79-3.46,3.79-15.1,8.56-16.41,0,0,6.84-5.77,15.03,11.51,.4,.83,1.21,1.4,2.14,1.48,6.13,.54,28.86,4.66,27.1,35.76,0,0-1.13,15.11-32.58,21.74-.23,.05-.46,.07-.69,.06-3.4-.16-33.76-1.44-33.77-29.9,0-.27-.03-.55,.02-.82,.45-2.42,3.19-14.82,13.12-21.87Z"/><path class="cls-59" d="M1395.23,256.71l-1.06,4.14c-.09,1.13,2.13,.61,2.91,.44l16.89-3.02c.23-.04,.37-.39,.29-.69l-1.17-3.96c-.05-.18-.18-.28-.31-.27l-15.07,1.66c-.93,.1-2.37,.36-2.48,1.7Z"/><path class="cls-59" d="M1411.7,256.57l.75,.22c1.8,.53,2.48,2.68,1.28,4.11-2.91,3.48-7.45,8.82-8.41,9.52-1.44,1.05-3.37-1.21-2.83-2.97,.43-1.4,4.18-7.53,6.49-10.11,.68-.75,1.74-1.05,2.72-.76Z"/><path class="cls-59" d="M1429.38,261.1l.43,.27c1.33,.83,1.62,2.61,.62,3.8-2.84,3.39-8.01,9.52-9.05,10.27-1.44,1.05-3.37-1.21-2.83-2.97,.42-1.36,4.75-7.89,7.42-10.89,.86-.97,2.31-1.18,3.41-.49Z"/><path class="cls-59" d="M1440.42,273.82h0c.51,.92,.4,2.05-.27,2.86-2.55,3.06-8.66,10.35-9.8,11.18-1.44,1.05-3.37-1.21-2.83-2.97,.39-1.28,5.34-7.92,8.63-11.55,1.21-1.34,3.4-1.08,4.27,.49Z"/></g><path class="cls-13" d="M1384.96,255.66l-16.67,26.93c-1.47,2.38-4.94,2.52-6.61,.27l-44.7-60.39c-.75-1.01,.35-2.33,1.51-1.82l64.35,28.35c2.61,1.15,3.6,4.28,2.12,6.68Z"/><path class="cls-43" d="M1334.61,230.56l7.22,2.73s13.77,31.3,31.04,37.39l-4.25,6.73s-34.09-33.28-34-46.85Z"/><path class="cls-58" d="M1346.97,235.23s-5.54,2.33-4.75,4.66c0,0-.08,6.19,2.34,4.65s2.41-2.86,2.41-2.86c0,0,2.88,3.26,2.23,5.39s-3.81,6.8-2.23,7.57,.67,6.05,.67,6.05l-27.59-37.11,26.92,11.65Z"/></g><g class="cls-63"><g><path class="cls-15" d="M244.68,699.75c0,47.06-40.65,85.9-93.21,91.64-4.42,.48-8.93,.73-13.5,.73-58.93,0-106.71-41.36-106.71-92.37s47.77-92.37,106.71-92.37,106.71,41.36,106.71,92.37Z"/><path class="cls-20" d="M123.58,607h14.39v10.02c0,45.66-37.07,82.73-82.73,82.73H30.83c0-51.19,41.56-92.75,92.75-92.75Z"/><path class="cls-20" d="M138.85,607h24.41c45.66,0,82.73,37.07,82.73,82.73v10.02h-14.39c-51.19,0-92.75-41.56-92.75-92.75h0Z" transform="translate(384.85 1306.75) rotate(-180)"/><path d="M111.73,711.07l-15.4,14.26c-1.1,1.02-1.32,2.85-.5,4.17h0c.99,1.61,2.96,1.91,4.28,.65l14.95-14.32c.99-.95,1.25-2.59,.61-3.88h0c-.8-1.63-2.67-2.04-3.94-.87Z"/><path d="M175.65,713.71l-15.4,14.26c-1.1,1.02-1.32,2.85-.5,4.17h0c.99,1.61,2.96,1.91,4.28,.65l14.95-14.32c.99-.95,1.25-2.59,.61-3.88h0c-.8-1.63-2.67-2.04-3.94-.87Z"/><path d="M158.52,718.06l16.47,13.33c1.17,.95,3.29,1.14,4.81,.43h0c1.86-.86,2.2-2.56,.75-3.7l-16.54-12.94c-1.1-.86-2.99-1.08-4.49-.53h0c-1.88,.7-2.36,2.31-1,3.41Z"/><path d="M96.16,715.76l16.47,13.33c1.17,.95,3.29,1.14,4.81,.43h0c1.86-.86,2.2-2.56,.75-3.7l-16.54-12.94c-1.1-.86-2.99-1.08-4.49-.53h0c-1.88,.7-2.36,2.31-1,3.41Z"/><path d="M124.49,770.66h0c1.72,1.28,4.4,.69,5.18-1.15,1.43-3.39,4.07-7.85,8.31-8.83,5.95-1.38,11.92-.42,17.07,3.8,1.57,1.29,4.07,1.19,5.46-.25l1.77-1.83c1.17-1.22,.73-2.99-.81-3.84-4.85-2.68-14.14-7.7-23.49-5.59-7.4,1.67-11.23,7.16-14.54,13.41-.78,1.48-.37,3.23,1.06,4.28Z"/><ellipse class="cls-20" cx="30.83" cy="738.53" rx="28.98" ry="38.77"/><ellipse class="cls-20" cx="30.83" cy="801.63" rx="28.98" ry="38.77"/><ellipse class="cls-20" cx="250.39" cy="738.53" rx="28.98" ry="38.77"/><ellipse class="cls-20" cx="250.39" cy="801.63" rx="28.98" ry="38.77"/></g><path class="cls-15" d="M162.94,792.13s61.1,33.07,43.54,99.22c0,0-16.69,98.94-14.05,99.27s17.41,7.27,42.96,0v-71.1l12.37,70.02s28.54,5.44,37.1,0c0,0,1.54-69.61-5.49-79.72s0-118.83-74.65-134.79l-41.78,17.11Z"/><path class="cls-18" d="M208.23,884.5l-14.47,88.51s10.96,13.37,38.18,2.73l3.02-44.24c.06-.83,1.43-.89,1.6-.08l8.11,40.72s5.55,13.94,40.32,1.55c0,0-.36-80.06-10.05-89.21-10.72-10.13-66.72,.03-66.72,.03Z"/><path class="cls-16" d="M166.96,792.51s57.62,42.51,41.55,91.96c0,0,19,20.5,66.45,0,0,0-7-101.85-70.23-109.45l-37.76,17.49Z"/><path class="cls-15" d="M193.76,808.88h18.86s12.3,45.34,0,60.52c-12.3,15.17-24.28,0-24.28,0,0,0-2.02-38.42,5.42-60.52Z"/><path class="cls-15" d="M183.34,798.59h18.86s12.3,42.54,0,56.78c-12.3,14.24-24.28,0-24.28,0,0,0-2.02-36.05,5.42-56.78Z"/></g><path class="cls-24" d="M157.75,794.76s-.37,6,5.19,6.87,58.47-30.29,58.47-30.29c0,0-4.14-8.93-9.02-5.39s-54.63,28.81-54.63,28.81Z"/><path class="cls-24" d="M235.5,216.5c-8,186.67-16,373.33-24,560,3.33-1.67,6.67-3.33,10-5,7.33-183.67,14.67-367.33,22-551-2.67-1.33-5.33-2.67-8-4Z"/><g><path class="cls-54" d="M662.51,278.57h6.15c3.4,0,6.15,0,6.15,0h-6.15c-3.4,0-6.15,0-6.15,0Z"/><g><g><path class="cls-7" d="M662.14,96.04s40.98,8.41,34.43,80.75c0,0,4.85,4.21,19.64,0,0,0,.76,3.56,.01,8.09-1,6.03-4.67,13.79-16.37,17.15,0,0-4.1,42.9-81.15,38.69,0,0-46.72-3.36-72.95-40.38,0,0-60.66,5.05-36.89-52.99,0,0,18.85,13.46,42.62-4.21,0,0,1.64-50.47,54.92-55.52,0,0,18.85,52.99,55.74,8.41Z"/><path class="cls-5" d="M716.21,184.87s4.94,2.85,8.22-9.77c0,0,15.57-13.46,15.57-25.23,0,0-4.1,1.68-3.28-4.21,0,0,2.46-26.92-4.92-33.65,0,0-10.86,5.89-15.27,0,0,0-19.98-44.58-51.95-47.1,0,0-9.02-8.41-2.46-16.82,0,0,7.38-.84,5.74,3.36,0,0,6.56-31.96-35.25-26.92,0,0-14.23,4.7-22.69,14.97,0,0-17.47,1.86-21.57,7.75,0,0-28.69,5.05-36.07,16.82,0,0-15.57-6.73-15.57,7.57,0,0-12.3-1.68-9.02,10.09,0,0-10.66,1.68-16.39-14.3,0,0-29.51,29.44-15.57,64.77,0,0,1.44,30.38,8.61,29.02l4.51-13.88c-6.15,1.26,33.01,9.32,42.62-4.21,2.94-4.13,0-48.79,54.92-55.52,0,0,19.67,52.15,55.74,8.41,0,0,40.17,6.73,34.43,80.75,0,0,11.4,1.68,19.64,0v8.09Z"/></g><path class="cls-54" d="M573.16,175.11c0,9.25,6.32,21.03,13.12,21.03s6.56-9.13,6.56-19.35-4.04-22.6-10.66-21.03c-10.66,2.52-9.02,9.13-9.02,19.35Z"/><path class="cls-50" d="M662.51,143.98s5.74,10.09,5.74,19.35l-4.1,.84s-2.46-15.14-4.92-18.51,2.46-4.21,3.28-1.68Z"/><path class="cls-50" d="M608.21,140.25s-5.74,10.09-5.74,19.35l4.29,1.21s2.26-15.51,4.72-18.87-2.46-4.21-3.28-1.68Z"/><path class="cls-46" d="M679.54,198.23c.57-.23,1.21,.04,1.44,.62,1.34,3.35,4.8,13.83-3.24,16.6,0,0-5.3,2.86-14.26-.28-.35-.12-.74-.07-1.04,.17-3.7,2.9-28.78,21.27-50.56,4.17-.28-.22-.65-.3-.99-.19-4.14,1.26-30.74,8.37-21.16-19.27,.21-.61,.87-1.63,1.46-1.39l2.46,.84c.53,.22-.26,1.26-.42,1.83-1.33,4.74-5.8,24.56,16.78,12.12,.58-.32,1.3-.27,1.82,.15,4.56,3.6,26.85,19.03,48.74-4.18,.32-.34,.81-.45,1.24-.26,3.51,1.58,19.05,7.74,14.88-8.7-.14-.55,.15-1.13,.67-1.34l2.17-.89Z"/><path class="cls-49" d="M641.73,198.66h-9.47c-.81,0-1.37,.83-1.09,1.61,.73,1.99,2.32,5.12,5.11,5.12,3.17,0,5.36-2.52,6.57-4.82,.45-.86-.17-1.9-1.12-1.9Z"/><ellipse class="cls-54" cx="655.95" cy="198.66" rx="4.92" ry="5.05"/><ellipse class="cls-54" cx="613.33" cy="198.66" rx="4.92" ry="5.05"/><g><g><path class="cls-4" d="M685.05,161.23l-37.71,9.25s-8.2,28.6,24.59,28.6c0,0,23.77-4.21,13.12-37.85Z"/><path class="cls-37" d="M671.53,166.69s11.07,23.97-7.79,28.18c0,0-17.62,2.94-15.16-23.13l12.84-2.82,10.11-2.22Z"/><path d="M661.41,169.15c-.29,1.86-.81,6.66,.83,10.02,.15,.3,.08,.66-.18,.86l-2.14,1.64c-.35,.27-.86,.12-1.01-.31-.63-1.81-1.96-6.42-1.77-12.34,.01-.36,.31-.65,.66-.65h2.96c.4,0,.71,.36,.65,.77Z"/><path d="M655.95,202.86s-.82,2.52-3.28,1.68c0,0-6.56-10.09-6.56-17.66l6.98,8.92s1.22,5.38,2.86,7.06Z"/></g><g><path class="cls-4" d="M582.08,155.83l42.09,11.87s8.07,31.98-28.85,30.55c0,0-26.6-5.68-13.23-42.42Z"/><path class="cls-37" d="M597.09,162.46s-13.44,26.02,7.63,31.49c0,0,19.73,4.02,18.02-24.91l-14.34-3.68-11.3-2.9Z"/><path d="M608.38,165.62c.25,2.06,.65,7.4-1.34,11.04-.18,.32-.12,.72,.17,.95l2.34,1.91c.39,.32,.96,.17,1.15-.29,.78-1.98,2.47-7.01,2.49-13.56,0-.4-.32-.73-.71-.75l-3.33-.13c-.45-.02-.81,.37-.76,.83Z"/><path d="M613.16,203.13s.82,2.83,3.62,2c0,0,7.79-10.87,8.1-19.24l-8.22,9.56s-1.59,5.9-3.51,7.69Z"/></g></g><path class="cls-54" d="M542.85,174.22s2.44,3.41-1.66,3.41c0,0-9.88-8.73-18.87-7.73,0,0-2.44-1.52,1.66-3.2,0,0,17.25,2.42,18.87,7.52Z"/><path class="cls-54" d="M688.74,167.54s2.46,15.14,18.85,14.3c0,0,1.34,1.9,0,3.36,0,0-9.3,2.12-9.57,1.9s5.47,9.87,5.47,11.56c0,0-3.28,1.68-4.92,1.68,0,0-6.73-14.39-8.2-15.14-1.64-.84,0-10.09-1.64-17.66Z"/><path class="cls-53" d="M735.46,150.71s-7.38,7.57-13.12,9.25c-3.28,.84-12.58,1.44-2.46-1.68,1.33,.14,14.41-7.58,14.75-14.3,0,0,0,5.05,.82,6.73Z"/><path class="cls-41" d="M717.24,138.1s4.98-1.04,4.11,2.5c-.16-.44-2.35,3.34-5.19,5.26,0,0-5.54,2.46-4.46-2.72,1.51-1.48,2.35-3.16,5.54-5.04Z"/><path class="cls-56" d="M661.69,45.57s-1.93,1.68-2.9,4.21c0,0-12.58-9.25-4.84,12.62,0,0,0,3.36-3.87,2.52,0,0-7.74-8.41-4.84-13.46,0,0-8.58,1.11-4.29,13.59,0,0-1.78,5.18-5.03,0s-.35-29.58,25.77-19.48Z"/><path class="cls-41" d="M635.92,35.14s4.98-1.04,4.11,2.5c-.16-.44-2.35,3.34-5.19,5.26,0,0-5.54,2.46-4.46-2.72,1.51-1.48,2.35-3.16,5.54-5.04Z"/><path class="cls-41" d="M568.86,70.66s-1.26-5.05,2.23-4.34c-.42,.19,3.37,2.24,5.38,5.06,0,0,2.67,5.56-2.42,4.71-1.52-1.47-3.2-2.25-5.19-5.43Z"/><path class="cls-41" d="M557.17,75.85s-1.26-5.05,2.23-4.34c-.42,.19,3.37,2.24,5.38,5.06,0,0,2.67,5.56-2.42,4.71-1.52-1.47-3.2-2.25-5.19-5.43Z"/><path class="cls-41" d="M515.61,127.53s-3.47-3.81-.07-4.9c-.28,.38,4,.31,7.08,1.79,0,0,4.94,3.56,.08,5.32-2.02-.55-3.85-.4-7.09-2.21Z"/><path class="cls-57" d="M506.77,76.69s-.82,.84-3.28,4.21c0,0-2.46,21.03,16.39,26.92,0,0,3.28,2.52,3.28-3.36,0,0-20.14-4.21-16.39-27.76Z"/><path class="cls-57" d="M499.06,90.15s-.73,1.41-1.39,2.89c-1.58,1-3.76,12.78,9.63,14.48,0,0,1.93,1.36,1.93-1.81,0,0-12.37-2.89-10.17-15.56Z"/><path class="cls-57" d="M610.05,41.36s-7.24,9.16-4.64,20.85c0,0-.68,4.9-3.96,1.81,0,0-3.64-12.56,2.87-21.82l5.74-.84Z"/><path class="cls-51" d="M636.34,111.18h-3.7c-.78,0-1.5-.46-3.69-.75l-3.54-12.27s-.38-6.7,2.68-5.48c.35,.14,3.86,12.5,9.4,16.65,.75,.56-.21,1.86-1.14,1.86Z"/><path class="cls-60" d="M623.17,107.81s-9.97-9-9.09-12.49-2.72-11.06,2.36-16.95c0,0,1.8-4.21,3.44,1.68s-5.74,1.68,3.28,27.76Z"/></g><path class="cls-2" d="M661.28,239.45s7.38,3.36,14.75,4.21c0,0-9.84,2.63-7.38,5.52,0,0,2.48,2.89,13.13,5l-5.75,2.1s5.74,6.73,9.84,6.73c0,0-40.98,16.82-27.05,50.47,0,0-43.44,23.55-100.82-1.68,0,0-18.03-1.68-20.49-4.21v-7.63s-3.28-4.15-3.28-8.36c0,0,4.53-6.84,7.18-10.15,0,0-15.13-20.98,9.34-27.28,0,0-5-2.1-4.2-14.72,0,0,4.9-10.93,26.21-12.62,0,0,36.89,26.08,88.53,12.62Z"/><path class="cls-1" d="M667.02,251.23l-10.66,1.68s1.51,9.27-9.19,8.56c-.87-.06-1.68,.41-2.13,1.17-1.67,2.86-6.63,8.9-16.59,3.12-.71-.41-1.57-.4-2.26,.04-2.88,1.82-10.75,5.91-16.25,.31-.63-.64-1.54-.87-2.39-.65-4.08,1.05-15.44,3.29-18.25-3.43-.66-1.58-2.36-2.41-3.96-1.91-3.76,1.18-9.71,2.11-12.53-2.45-.61-.98-1.74-1.46-2.85-1.22-2.99,.65-8.41,.8-9.78-6.19-.16-.83-.86-1.46-1.68-1.5-2.62-.12-7.87-1.54-7.87-11l-3.28,1.68c.77,.24-2.2,13.15,8.8,13.91,0,0,3.5,12.17,15.79,7.96,0,0,6.72,7.46,14.83,3.73,0,0,6.78,9.85,20.57,3.9,0,0,13.61,7.51,21.07-.48,0,0,12.91,6.2,19.61-3.42,0,0,11.51-1.21,12.39-9.2,0,0,9.07,1.26,9.89-2.94l-3.28-1.68Z"/><path class="cls-1" d="M674.4,257.12s.82,7.57-12.3,5.05c0,0-4.92,14.3-20.49,9.25,0,0-13.4,10.57-22.28,1.08,0,0-14.61,5.65-20.35-2.76,0,0-15.57,6.73-20.49-4.21,0,0-13.35,5.05-16.39-5.89,0,0-9.02,1.68-11.48-3.36,0,0-4.1,2.52-5.74,2.52s8.2,3.36,13.93,1.68c0,0,4.1,11.78,17.21,10.93,0,0,9.84,9.25,22.13,4.21,0,0,10,5.54,20.98,1.51,0,0,7.71,9.43,23.28-.67,0,0,20.49,0,22.95-9.25,0,0,11.48-1.68,13.12-5.89,0,0-4.92-2.52-4.1-4.21Z"/><path class="cls-1" d="M653.08,243.66s1.64,2.52,1.64,5.05-2.46,1.68-2.46,1.68l-5.74-5.89c.01-.23,4.94,.43,6.56-.84Z"/><path class="cls-1" d="M642.02,244.61c.6-.26,1.23,.27,1.23,1.05l1.64,7.26c0,4.5-3.28,.84-3.28,.84l-3.69-8.71c0-.32,2.41,.31,4.1-.43Z"/><path class="cls-1" d="M627.27,244.85c.6-.26,1.23,.27,1.23,1.05l1.64,7.85c.82,4.21-2.46,3.36-2.46,3.36l-4.51-11.83c0-.32,2.41,.31,4.1-.43Z"/><path class="cls-1" d="M619.98,244.86c.62-.09,1.17,.44,1.06,1.03l.52,6.26c.22,3.34-2.88,2.08-2.88,2.08l-2.79-9.81c.05-.24,2.32,.69,4.09,.45Z"/><path class="cls-1" d="M612.52,244.11c.61-.02,1.17,.4,1.09,.83l.74,4.63c.34,2.47-2.78,1.33-2.78,1.33l-3.12-7.4c.04-.17,2.33,.67,4.07,.61Z"/><path class="cls-1" d="M597.74,240.83c.65,.02,1,.77,.68,1.48l-1.72,7.83c-.97,4.17-3.61,2-3.61,2l.74-12.68c.14-.29,2.06,1.32,3.9,1.37Z"/><path class="cls-1" d="M592.33,238.61c.59-.01,.87,.71,.55,1.42l-1.9,7.75c-1.06,4.13-3.34,2.12-3.34,2.12l1.23-12.45c.14-.29,1.8,1.2,3.45,1.16Z"/><path class="cls-1" d="M583.48,235.43c.49,.32,.33,1.09-.31,1.49l-5.79,5.35c-3.13,2.82-3.93-.15-3.93-.15l6.68-8.55c.27-.16,1.95,.94,3.35,1.86Z"/><path class="cls-1" d="M577.23,232.38c.33,.45,.22,1.09-.2,1.26l-3.81,3.02c-2.06,1.57-2.6-1.38-2.6-1.38l3.78-5.07c.18-.06,1.91,.9,2.83,2.18Z"/><path class="cls-1" d="M558,309.27h-4.1s3.28-29.44,7.38-33.65,3.28,2.52,3.28,2.52c0,0-6.56,23.55-6.56,31.12Z"/><path class="cls-1" d="M655.54,287.4l-4.46-11.66-4.97,.72,7.45,19.05s1.23-1.2,1.97-8.12Z"/><ellipse class="cls-12" cx="609.23" cy="292.03" rx="8.61" ry="8.83"/><ellipse class="cls-12" cx="609.23" cy="314.74" rx="8.61" ry="8.83"/><path class="cls-34" d="M679.56,267.97l-12.65-3.54"/><path class="cls-34" d="M539.56,299.6v2.52c.32,2.7-.34,.74,0,.84l13.89,2.42c.33,.1,.68-.11,1.1-.25l.58-2.97c-.29-.54-.48-.86-.8-.95l-14.76-1.61c-2.12,1.93,.12-.16,0,0Z"/><line class="cls-22" x1="609.23" y1="301.28" x2="609.23" y2="306.33"/><line class="cls-8" x1="609.64" y1="276.46" x2="609.64" y2="279.83"/><path class="cls-9" d="M555.12,285.68l-3.86-1.08,2.64-9.02s2.93-3.32,3.51,.89l-2.29,9.21Z"/><path class="cls-9" d="M549.26,284.28l-3.86-.86,.72-6.53c0-1.68,1.46-4.53,3.28,0l-.13,7.39Z"/><path class="cls-9" d="M549.42,288.02l3.62-1.47-.18,5.21s-1.77,2.9-3.27,1.38l-.17-5.12Z"/><path class="cls-9" d="M544.91,286.06l3.86,.53-2.64,4.45s-2.93,1.64-3.51-.44l2.29-4.55Z"/><path class="cls-34" d="M543.04,282.61l-1.91,2.42c-.22,.28-.1,.71,.24,.82l13.96,4.3c.33,.1,.68-.11,1.1-.25l.58-2.97c-.29-.54-.48-.86-.8-.95l-12.65-3.54c-.19-.05-.4,.01-.52,.17Z"/><path class="cls-27" d="M685.87,263.01s-38.12,14.72-27.05,50.47c0,0,9.43,7.15,34.84,7.15,0,0,19.54-3.38,22.88-21.04,0,0,11.02-2.84,12.1-9.41,0,0,5.51-7.33-3.26-9.05,0,0-10.69-2.92-13.83,3.15s6.7-18.33-25.68-21.27Z"/><path class="cls-44" d="M681.51,267.05l-2.48,1.82c-.93,.68-1.06,2.05-.26,2.9,2.17,2.31,6.17,6.46,8.34,8.1,.42,.32,.95,.43,1.47,.32,.79-.16,1.93-.58,2.42-1.65,.28-.61,.16-1.34-.23-1.88l-6.65-9.19c-.61-.84-1.76-1.03-2.59-.42Z"/><path class="cls-44" d="M674.56,272.53l-3.85,3.51c-.22,.28,.11,1.41,.28,1.73,1.2,2.16,5.87,10.51,7.98,13.05,.21,.25,.53,.36,.84,.27,.82-.22,2.32-1.01,2.37-3.81,0-.13-.02-.26-.08-.38l-6.14-14.17c-.25-.58-1.01-.69-1.41-.2Z"/><path class="cls-44" d="M666.95,279.72l-4.72,5.78s6.39,11.67,8.59,13.93c0,0,2.91-.05,2.89-4.1l-6.76-15.61Z"/></g><path class="cls-28" d="M1930.64,1079.5l-.14-95.59-205,7.56v-189.97h-213.24l-.97,178.6h-73.22l-38.21-63.46-34.08,63.46-83.29-68.79-103,76.23-153-113.44-159,93.48-2.97-153.83-135.52-9.64v165.78h-243.53l-46.25-73.41-60.02,77.27,14-122.79-96.61,7.71-9.69,115.08-201.75-.49L-11,858.67s-.12,109.33-.18,220.83H1930.64Z"/><rect class="cls-64" x="1551" y="830" width="152" height="64" rx="23.56" ry="23.56"/><rect class="cls-64" x="1551" y="917" width="152" height="64" rx="23.56" ry="23.56"/><rect class="cls-64" x="1241" y="949" width="64" height="64" rx="10.49" ry="10.49"/><rect class="cls-64" x="980" y="941" width="64" height="64" rx="32" ry="32"/><rect class="cls-64" x="746" y="830" width="104" height="27" rx="10.49" ry="10.49"/><rect class="cls-64" x="309" y="877" width="52" height="68" rx="10.49" ry="10.49" transform="translate(52.8 -17.71) rotate(3.29)"/><rect class="cls-64" x="405.43" y="953.79" width="52" height="52.19" rx="26" ry="26" transform="translate(56.91 -23.13) rotate(3.29)"/><rect class="cls-64" x="-23" y="929" width="52" height="68" rx="10.49" ry="10.49"/><rect class="cls-64" x="746" y="880" width="104" height="27" rx="10.49" ry="10.49"/><rect class="cls-64" x="746" y="935" width="104" height="27" rx="10.49" ry="10.49"/><g><path class="cls-32" d="M1228.69,733.56c-.16,.52-.31,1.05-.45,1.57-1.46-.92-2.98-1.83-4.55-2.72-16.67-9.43-49.74,14.28-52.72,19.56s25.24-9.88,41.91-.45c6.43,3.64,12.76,6.37,18.27,8.06,3.21,6.26,8.31,11.75,15.01,15.54,4.19,2.37,8.62,3.86,13.07,4.53,4.44,4.31,10.66,8.9,17.93,13.01,16.67,9.43,18.22,41.43,21.21,36.15,2.99-5.28,6.27-45.84-10.39-55.26-.5-.28-1-.56-1.5-.83,1.97-1.54,3.78-3.32,5.39-5.32,18.03,.02,42.83-14.8,45.28-19.13s-17.92,3.07-34.56,.86c15.37-4.08,31.04-13.93,32.96-17.33,2.7-4.76-22.59,4.8-39.8-.23-3.17-6.72-8.46-12.63-15.55-16.64-7.1-4.01-14.9-5.51-22.3-4.75-13.21-12.14-18.05-38.81-20.74-34.04-2.01,3.55-2.32,23.66,2.78,39.29-12.91-12.3-17.67-38.39-20.34-33.67s-2.36,37.52,9.09,51.79Z"/><ellipse class="cls-36" cx="1265.56" cy="761.41" rx="9.81" ry="6.65" transform="translate(-20.31 1488) rotate(-60.5)"/><ellipse class="cls-36" cx="1278.36" cy="750.67" rx="4.91" ry="3.33" transform="translate(-4.46 1493.69) rotate(-60.5)"/><ellipse class="cls-36" cx="1285.49" cy="738.06" rx="4.91" ry="3.33" transform="translate(10.13 1493.5) rotate(-60.5)"/><ellipse class="cls-36" cx="1244.33" cy="749.4" rx="9.81" ry="6.65" transform="translate(-20.63 1463.43) rotate(-60.5)"/><ellipse class="cls-36" cx="1250.62" cy="732.83" rx="4.91" ry="3.33" transform="translate(-3.01 1460.49) rotate(-60.5)"/><ellipse class="cls-36" cx="1257.52" cy="720.63" rx="4.91" ry="3.33" transform="translate(11.11 1460.3) rotate(-60.5)"/><ellipse cx="1262.73" cy="762.22" rx="4.91" ry="3.33" transform="translate(-22.45 1485.95) rotate(-60.5)"/><ellipse cx="1270.43" cy="759.87" rx="2.34" ry="1.58" transform="translate(-16.49 1491.46) rotate(-60.5)"/><ellipse cx="1245.04" cy="751.68" rx="4.91" ry="3.33" transform="translate(-22.25 1465.21) rotate(-60.5)"/><ellipse cx="1244.62" cy="743.34" rx="3" ry="2.01" transform="translate(-15.21 1460.6) rotate(-60.5)"/><ellipse cx="1277.07" cy="751.01" rx="2.1" ry="1.43" transform="translate(-5.41 1492.75) rotate(-60.5)"/><ellipse cx="1280.64" cy="749.54" rx=".93" ry=".63" transform="translate(-2.32 1495.1) rotate(-60.5)"/><ellipse cx="1283.98" cy="738.82" rx="2.1" ry="1.43" transform="translate(8.71 1492.56) rotate(-60.5)"/><ellipse cx="1287.49" cy="736.78" rx=".93" ry=".63" transform="translate(12.26 1494.59) rotate(-60.5)"/><ellipse cx="1250.52" cy="734.92" rx="2.1" ry="1.43" transform="translate(-4.88 1461.47) rotate(-60.5)"/><ellipse cx="1250.46" cy="730.86" rx=".93" ry=".63" transform="translate(-1.38 1459.35) rotate(-60.5)"/><ellipse cx="1257.43" cy="722.72" rx="2.1" ry="1.43" transform="translate(9.24 1461.28) rotate(-60.5)"/><ellipse cx="1258.14" cy="718.56" rx=".93" ry=".63" transform="translate(13.22 1459.79) rotate(-60.5)"/></g></svg>